<?xml version="1.0" encoding="UTF-8"?>
<svg width="131px" height="124px" viewBox="0 0 131 124" version="1.1" xmlns="http://www.w3.org/2000/svg" xmlns:xlink="http://www.w3.org/1999/xlink">
    <!-- Generator: Sketch 56 (81588) - https://sketch.com -->
    <title>noun_Trophy_825994 (1)</title>
    <desc>Created with Sketch.</desc>
    <g id="Mobile" stroke="none" stroke-width="1" fill="none" fill-rule="evenodd">
        <g id="1.-Mobile-Login" transform="translate(-141.000000, -134.000000)" fill-rule="nonzero">
            <g id="noun_Trophy_825994-(1)" transform="translate(141.000000, 134.000000)">
                <g id="Group">
                    <path d="M65.7534066,113.872372 C80.0587253,113.872372 91.695033,102.305767 91.695033,88.0861395 L91.695033,54.4518605 L39.8117802,54.4518605 L39.8117802,88.0861395 C39.8117802,102.304326 51.4480879,113.872372 65.7534066,113.872372 Z M57.1182857,70.6771163 L65.751956,58.1531163 L74.3856264,70.6771163 L89.0361758,74.968093 L79.7221978,87.0018605 L80.1428571,102.177442 L65.751956,97.0905581 L51.3610549,102.177442 L51.7817143,87.0004186 L42.4677363,74.9666512 L57.1182857,70.6771163 Z" id="Shape" fill="#000000"></path>
                    <path d="M29.6593846,88.0861395 C29.6593846,107.869907 45.8504176,123.963953 65.7534066,123.963953 C85.6549451,123.963953 101.845978,107.869907 101.845978,88.0861395 L101.845978,44.3602791 L29.6593846,44.3602791 L29.6593846,88.0861395 Z M35.2991209,49.9662326 L96.2076923,49.9662326 L96.2076923,88.0861395 C96.2076923,104.777116 82.5464176,118.358 65.7534066,118.358 C48.9603956,118.358 35.2991209,104.778558 35.2991209,88.0861395 L35.2991209,49.9662326 Z" id="Shape" fill="#000000"></path>
                    <polygon id="Path" fill="#F7C53D" points="95.7232088 18.8148372 92.6944615 24.9182326 85.9189451 25.8972558 90.8218022 30.6467442 89.6642637 37.3557209 95.7232088 34.1879535 101.783604 37.3557209 100.626066 30.6467442 105.528923 25.8972558 98.7548571 24.9182326"></polygon>
                    <polygon id="Path" fill="#F7C53D" points="70.5996923 9.79888372 65.7534066 0.0360465116 60.9056703 9.79888372 50.0686154 11.3633023 57.9102857 18.961907 56.0593846 29.6907907 65.7534066 24.6255349 75.445978 29.6907907 73.5950769 18.961907 81.4367473 11.3633023"></polygon>
                    <polygon id="Path" fill="#F7C53D" points="38.8123516 24.9182326 35.7807033 18.8148372 32.751956 24.9182326 25.9764396 25.8972558 30.8792967 30.6467442 29.7217582 37.3557209 35.7807033 34.1879535 41.8410989 37.3557209 40.685011 30.6467442 45.5864176 25.8972558"></polygon>
                    <polygon id="Path" fill="#000000" points="57.0443077 94.4043721 65.7534066 91.3274419 74.4610549 94.4043721 74.2072088 85.2197209 79.8425934 77.9397674 70.9782857 75.3429767 65.7534066 67.7645581 60.5270769 75.3429767 51.6627692 77.9397674 57.2981538 85.2211628"></polygon>
                    <path d="M109.072615,57.1913953 L109.072615,88.0861395 C109.072615,88.1697674 109.066813,88.2519535 109.066813,88.3355814 L131.026681,88.3355814 L122.324835,72.7634884 L131.028132,57.1913953 L109.072615,57.1913953 L109.072615,57.1913953 Z" id="Path" fill="#000000"></path>
                    <path d="M0.478681319,88.3341395 L23.3581978,88.3341395 C23.3581978,88.2505116 23.3523956,88.1683256 23.3523956,88.0846977 L23.3523956,57.1913953 L0.478681319,57.1913953 L9.18197802,72.7634884 L0.478681319,88.3341395 Z" id="Path" fill="#000000"></path>
                </g>
            </g>
        </g>
    </g>
</svg>