<?xml version="1.0" encoding="UTF-8"?>
<svg width="267px" height="195px" viewBox="0 0 267 195" version="1.1" xmlns="http://www.w3.org/2000/svg" xmlns:xlink="http://www.w3.org/1999/xlink">
    <!-- Generator: Sketch 56 (81588) - https://sketch.com -->
    <title>Group 2</title>
    <desc>Created with Sketch.</desc>
    <g id="Mobile" stroke="none" stroke-width="1" fill="none" fill-rule="evenodd">
        <g id="4.Mobile-Onboarding-CONGRATS" transform="translate(-75.000000, -366.000000)" fill-rule="nonzero">
            <g id="Group-2" transform="translate(75.000000, 366.000000)">
                <g id="noun_premium_420937" transform="translate(0.000000, 61.000000)" fill="#000000">
                    <path d="M214.747775,67.0290202 C214.747775,60.6477325 211.965317,54.8213394 207.235138,50.3821827 L206.956892,50.1047354 L207.235138,49.8272881 C207.791629,48.4400516 208.348121,47.0528152 208.626367,45.6655787 L264.832019,45.6655787 C266.77974,45.6655787 267.614477,47.885157 266.501494,49.2723935 L252.86745,66.1966784 C252.310958,66.7515729 252.310958,67.5839148 252.86745,68.1388094 L266.501494,84.5081997 C267.614477,85.8954362 266.77974,88.1150145 264.832019,88.1150145 L208.348121,88.1150145 C208.069875,86.727778 207.791629,85.6179889 207.235138,84.2307524 L206.956892,83.9533051 L207.235138,83.6758578 C211.965317,79.2367011 214.747775,73.1328607 214.747775,67.0290202 Z M0.498506023,84.2307524 C-0.61447719,85.6179889 0.498506023,87.8375672 2.16798084,87.8375672 L58.3736331,87.8375672 C58.6518789,86.4503307 59.2083705,85.0630943 59.7648621,83.6758578 L60.0431079,83.3984105 L59.7648621,83.1209632 C55.0346835,78.9592538 52.2522254,72.8554134 52.2522254,66.4741257 C52.2522254,60.0928379 55.0346835,54.2664448 59.7648621,50.1047354 L60.0431079,49.8272881 L59.7648621,49.5498408 C59.2083705,48.1626043 58.9301247,47.0528152 58.6518789,45.6655787 L2.16798084,45.6655787 C0.22026022,45.6655787 -0.61447719,47.885157 0.498506023,49.2723935 L14.1325504,65.6417838 C14.689042,66.1966784 14.689042,67.0290202 14.1325504,67.5839148 L0.498506023,84.2307524 Z M68.390482,73.1328607 C64.4950408,69.5260459 64.4950408,63.4222054 68.390482,59.8153906 L70.8946943,57.5958123 C73.6771523,55.0987866 74.7901355,50.9370773 73.1206607,47.6077097 L71.7294317,44.2783422 C69.781711,39.284291 72.2859233,33.7353451 77.5725935,32.3481086 L80.9115432,31.5157668 C84.5287386,30.4059776 87.3111967,27.3540574 87.3111967,23.4697953 L87.5894425,19.8629805 C87.8676883,14.5914819 92.8761127,10.7072198 97.8845372,11.5395617 L101.223487,12.0944563 C104.840682,12.6493508 108.736124,10.9846671 110.683844,7.65529957 L112.353319,4.60337935 C114.857531,-0.113224628 120.978939,-1.50046109 125.430872,1.82890642 L128.21333,3.77103747 C131.274034,5.99061581 135.447721,5.99061581 138.508424,3.77103747 L141.290882,1.82890642 C145.742815,-1.2230138 151.585977,0.164222665 154.368435,4.88082664 L156.03791,7.93274686 C157.985631,11.2621144 161.602826,13.2042454 165.220022,12.3719036 L168.558971,11.817009 C173.845641,10.9846671 178.57582,14.8689292 178.854066,20.1404278 L179.132312,23.7472426 C179.410558,27.6315047 181.91477,30.6834249 185.531965,31.793214 L188.870915,32.6255559 C193.879339,34.0127924 196.661797,39.5617382 194.714077,44.5557895 L193.322848,47.885157 C191.931619,51.4919718 192.766356,55.3762339 195.548814,57.8732596 L198.053026,60.0928379 C201.948468,63.6996527 201.948468,69.8034932 198.053026,73.410308 L195.548814,75.6298863 C192.766356,78.126912 191.653373,82.2886213 193.322848,85.6179889 L194.714077,88.9473564 C196.661797,93.9414076 194.157585,99.4903535 188.870915,100.87759 L185.531965,101.709932 C181.91477,102.819721 179.132312,105.871641 179.132312,109.755903 L178.854066,113.362718 C178.57582,118.634217 173.567396,122.518479 168.558971,121.686137 L165.220022,121.131242 C161.602826,120.576348 157.707385,122.241032 155.759664,125.570399 L154.090189,128.622319 C151.585977,133.338923 145.46457,134.72616 141.012637,131.396792 L138.230179,129.454661 C135.169475,127.235083 130.995788,127.235083 127.935084,129.454661 L125.152626,131.396792 C120.700693,134.448712 114.857531,133.061476 112.075073,128.344872 L110.405598,125.292952 C108.457878,121.963584 104.840682,120.021453 101.223487,120.853795 L97.8845372,121.40869 C92.5978669,122.241032 87.8676883,118.356769 87.5894425,113.085271 L87.5894425,109.755903 C87.3111967,105.871641 84.8069844,102.819721 81.189789,101.709932 L77.8508393,100.87759 C72.8424149,99.4903535 70.0599568,93.9414076 72.0076775,88.9473564 L73.3989065,85.6179889 C74.7901355,82.0111741 73.9553981,78.126912 71.1729401,75.6298863 L68.390482,73.1328607 Z M90.0936547,66.7515729 C90.0936547,90.6120401 109.570861,110.033351 133.5,110.033351 C157.429139,110.033351 176.906345,90.6120401 176.906345,66.7515729 C176.906345,42.8911058 157.429139,23.4697953 133.5,23.4697953 C109.570861,23.4697953 90.0936547,42.8911058 90.0936547,66.7515729 Z M110.96209,90.3345928 L117.918235,90.3345928 C118.752972,90.3345928 119.865956,90.0571455 120.422447,89.502251 C120.700693,89.2248037 121.53543,88.3924618 121.53543,85.8954362 L121.53543,74.2426499 C121.53543,74.2426499 121.53543,88.6699091 129.604559,89.502251 C132.387017,89.7796983 136.004212,89.7796983 139.621408,89.7796983 C142.960357,90.0571455 146.299307,90.0571455 149.081765,89.502251 C158.542122,87.5601199 156.03791,81.1788322 156.03791,81.1788322 C161.046335,77.2945701 158.263876,72.5779661 158.263876,72.5779661 C162.715809,67.8613621 158.263876,63.9771 158.263876,63.9771 C158.263876,63.9771 160.768089,60.0928379 157.429139,57.318365 C153.533698,53.7115502 142.960357,56.2085758 142.960357,56.2085758 L142.960357,56.2085758 C142.12562,56.2085758 141.569128,56.4860231 140.734391,56.7634704 C140.734391,56.7634704 137.117195,58.4281542 140.734391,47.3302624 C144.351586,36.2323707 138.230179,34.567687 135.725966,34.567687 C133.221754,34.567687 134.056492,40.1166328 134.056492,40.1166328 C134.056492,40.1166328 128.491576,55.0987866 123.204905,59.260496 C121.813676,60.6477325 120.978939,62.3124163 120.700693,63.4222054 C119.865956,62.5898636 118.752972,62.3124163 117.639989,62.3124163 L110.683844,62.3124163 C108.179632,62.3124163 105.953665,64.5319946 105.953665,67.0290202 L105.953665,85.6179889 C106.510157,88.3924618 108.457878,90.3345928 110.96209,90.3345928 Z" id="Shape"></path>
                </g>
                <polygon id="Path" fill="#F7C53D" points="176.498927 28 172.019898 37.217202 162 38.6956995 169.250536 45.8682635 167.538723 56 176.498927 51.2161132 185.461277 56 183.749464 45.8682635 191 38.6956995 180.982247 37.217202"></polygon>
                <polygon id="Path" fill="#F7C53D" points="138.762451 14.8147518 131.501087 0 124.237549 14.8147518 108 17.1887003 119.749457 28.7193076 116.976185 45 131.501087 37.3136578 146.023815 45 143.250543 28.7193076 155 17.1887003"></polygon>
                <polygon id="Path" fill="#F7C53D" points="90.9822472 37.217202 86.4989274 28 82.0198979 37.217202 72 38.6956995 79.2505363 45.8682635 77.5387233 56 86.4989274 51.2161132 95.4612767 56 93.7516088 45.8682635 101 38.6956995"></polygon>
            </g>
        </g>
    </g>
</svg>