<?xml version="1.0" encoding="UTF-8"?>
<svg width="180px" height="180px" viewBox="0 0 180 180" version="1.1" xmlns="http://www.w3.org/2000/svg" xmlns:xlink="http://www.w3.org/1999/xlink">
    <!-- Generator: Sketch 56 (81588) - https://sketch.com -->
    <title>noun_email sent_837684</title>
    <desc>Created with Sketch.</desc>
    <g id="Mobile" stroke="none" stroke-width="1" fill="none" fill-rule="evenodd">
        <g id="2b.Mobile-Registration-Thank-you" transform="translate(-116.000000, -434.000000)" fill-rule="nonzero">
            <g id="noun_email-sent_837684" transform="translate(116.000000, 434.000000)">
                <g id="Group">
                    <path d="M54.28125,50.5263158 L71.2617188,61.1929825 L71.2617188,91.9649123 C71.2617188,93.5438596 72.2460938,94.9473684 73.7226563,95.4736842 C74.1445313,95.6140351 74.5664063,95.6842105 74.9882813,95.6842105 C76.078125,95.6842105 77.1328125,95.1929825 77.8710938,94.3508772 L94.9570313,73.8245614 L110.601563,82.7719298 C111.164063,83.122807 111.796875,83.2631579 112.429688,83.2631579 C113.660156,83.2631579 114.855469,82.6666667 115.59375,81.5438596 L164.390625,6.10526316 C165.304688,4.73684211 165.164063,2.9122807 164.144531,1.68421053 C163.089844,0.421052632 161.332031,-0.0350877193 159.820313,0.596491228 L54.84375,43.8947368 C53.5429687,44.4210526 52.6640625,45.6491228 52.5234375,47.0526316 C52.3828125,48.4210526 53.0507812,49.7894737 54.28125,50.5263158 Z M78.75,61.5789474 L104.871094,50.245614 L78.75,81.6491228 L78.75,61.5789474 Z" id="Shape" fill="#63B145"></path>
                    <polygon id="Path" fill="#000000" points="0 58.5614035 0 174.807018 61.8046875 107.403509"></polygon>
                    <path d="M175.21875,52.7719298 L143.15625,52.7719298 L121.886719,85.6491228 C119.847656,88.8421053 116.296875,90.8070175 112.429688,90.8070175 C110.390625,90.8070175 108.457031,90.2807018 106.734375,89.2631579 L96.6796875,83.5087719 L83.6015625,99.1929825 C81.4570313,101.754386 78.2929688,103.22807 74.953125,103.22807 C73.6523438,103.22807 72.3515625,103.017544 71.15625,102.561404 C66.6914063,100.947368 63.703125,96.7017544 63.703125,92 L63.703125,65.3333333 L50.2734375,56.8421053 C48.6210938,55.8245614 47.3203125,54.3859649 46.40625,52.7368421 L4.78125,52.7368421 L90,120.140351 L175.21875,52.7719298 Z" id="Path" fill="#000000"></path>
                    <polygon id="Path" fill="#000000" points="118.195313 107.403509 180 174.807018 180 58.5263158"></polygon>
                    <polygon id="Path" fill="#000000" points="90 129.684211 67.6757812 112.035088 5.4140625 180 174.585938 180 112.324219 112.035088"></polygon>
                </g>
            </g>
        </g>
    </g>
</svg>