<?xml version="1.0" encoding="UTF-8"?>
<svg width="221px" height="166px" viewBox="0 0 221 166" version="1.1" xmlns="http://www.w3.org/2000/svg" xmlns:xlink="http://www.w3.org/1999/xlink">
    <!-- Generator: Sketch 56 (81588) - https://sketch.com -->
    <title>noun_tickets_1872395</title>
    <desc>Created with Sketch.</desc>
    <g id="Mobile" stroke="none" stroke-width="1" fill="none" fill-rule="evenodd">
        <g id="4c.Mobile-Onboarding-Club--joined-Ticket-Entries" transform="translate(-88.000000, -329.000000)" fill="#077AE1" fill-rule="nonzero">
            <g id="noun_tickets_1872395" transform="translate(88.000000, 329.000000)">
                <g id="Group">
                    <path d="M217.554054,112.198787 C219.277027,112.198787 221,110.819268 221,108.749991 L221,87.0225777 C221,82.8840228 217.554054,79.4352271 213.418919,79.4352271 L50.0810811,79.4352271 C45.9459459,79.4352271 42.5,82.8840228 42.5,87.0225777 L42.5,108.749991 C42.5,110.474389 44.222973,112.198787 45.9459459,112.198787 C51.8040541,112.198787 56.2837838,117.027101 56.2837838,122.890053 C56.2837838,128.753006 51.4594595,133.236441 45.9459459,133.236441 C44.222973,133.236441 42.5,134.960838 42.5,136.685236 L42.5,158.412649 C42.5,162.551204 45.9459459,166 50.0810811,166 L213.418919,166 C217.554054,166 221,162.551204 221,158.412649 L221,136.685236 C221,134.960838 219.277027,133.236441 217.554054,133.236441 C211.695946,133.236441 207.216216,128.408126 207.216216,122.890053 C206.871622,117.027101 211.695946,112.198787 217.554054,112.198787 Z M160.006757,150.825299 L77.6486486,150.825299 C75.5810811,150.825299 74.2027027,149.44578 74.2027027,147.376503 C74.2027027,145.307226 75.5810811,143.927707 77.6486486,143.927707 L160.006757,143.927707 C162.074324,143.927707 163.452703,145.307226 163.452703,147.376503 C163.452703,149.44578 161.72973,150.825299 160.006757,150.825299 Z M160.006757,134.271079 L77.6486486,134.271079 C75.5810811,134.271079 74.2027027,132.891561 74.2027027,130.822284 C74.2027027,128.753006 75.5810811,127.373488 77.6486486,127.373488 L160.006757,127.373488 C162.074324,127.373488 163.452703,128.753006 163.452703,130.822284 C163.452703,132.891561 161.72973,134.271079 160.006757,134.271079 Z M160.006757,118.061739 L77.6486486,118.061739 C75.5810811,118.061739 74.2027027,116.682221 74.2027027,114.612944 C74.2027027,112.543666 75.5810811,111.164148 77.6486486,111.164148 L160.006757,111.164148 C162.074324,111.164148 163.452703,112.543666 163.452703,114.612944 C163.452703,116.682221 161.72973,118.061739 160.006757,118.061739 Z M160.006757,101.852399 L77.6486486,101.852399 C75.5810811,101.852399 74.2027027,100.472881 74.2027027,98.4036036 C74.2027027,96.3343262 75.5810811,94.9548079 77.6486486,94.9548079 L160.006757,94.9548079 C162.074324,94.9548079 163.452703,96.3343262 163.452703,98.4036036 C163.452703,100.472881 161.72973,101.852399 160.006757,101.852399 Z M182.75,159.102409 C182.75,161.171686 181.371622,162.551204 179.304054,162.551204 C177.236486,162.551204 175.858108,161.171686 175.858108,159.102409 L175.858108,155.653613 C175.858108,153.584335 177.236486,152.204817 179.304054,152.204817 C181.371622,152.204817 182.75,153.584335 182.75,155.653613 L182.75,159.102409 Z M182.75,145.307226 C182.75,147.376503 181.371622,148.756021 179.304054,148.756021 C177.236486,148.756021 175.858108,147.376503 175.858108,145.307226 L175.858108,141.85843 C175.858108,139.789152 177.236486,138.409634 179.304054,138.409634 C181.371622,138.409634 182.75,139.789152 182.75,141.85843 L182.75,145.307226 Z M182.75,131.512043 C182.75,133.58132 181.371622,134.960838 179.304054,134.960838 C177.236486,134.960838 175.858108,133.58132 175.858108,131.512043 L175.858108,128.063247 C175.858108,125.993969 177.236486,124.614451 179.304054,124.614451 C181.371622,124.614451 182.75,125.993969 182.75,128.063247 L182.75,131.512043 Z M182.75,117.71686 C182.75,119.786137 181.371622,121.165655 179.304054,121.165655 C177.236486,121.165655 175.858108,119.786137 175.858108,117.71686 L175.858108,114.268064 C175.858108,112.198787 177.236486,110.819268 179.304054,110.819268 C181.371622,110.819268 182.75,112.198787 182.75,114.268064 L182.75,117.71686 Z M182.75,103.921677 C182.75,105.990954 181.371622,107.370473 179.304054,107.370473 C177.236486,107.370473 175.858108,105.990954 175.858108,103.921677 L175.858108,100.472881 C175.858108,98.4036036 177.236486,97.0240853 179.304054,97.0240853 C181.371622,97.0240853 182.75,98.4036036 182.75,100.472881 L182.75,103.921677 Z M182.75,90.1264938 C182.75,92.1957713 181.371622,93.5752896 179.304054,93.5752896 C177.236486,93.5752896 175.858108,92.1957713 175.858108,90.1264938 L175.858108,86.6776981 C175.858108,84.6084207 177.236486,83.2289024 179.304054,83.2289024 C181.371622,83.2289024 182.75,84.6084207 182.75,86.6776981 L182.75,90.1264938 Z" id="Shape"></path>
                    <path d="M49.7364865,122.890053 C49.7364865,120.820776 48.0135135,119.096378 46.2905405,119.096378 C40.777027,119.096378 35.9527027,114.268064 35.9527027,108.749991 L35.9527027,87.0225777 C35.9527027,85.2981798 36.2972973,83.5737819 36.9864865,82.1942637 C35.9527027,81.8493841 35.2635135,81.5045045 34.9189189,80.4698658 C33.8851351,78.7454679 34.9189189,76.6761905 36.2972973,75.9864313 L109.695946,39.084317 C111.418919,38.0496782 113.486486,39.084317 114.175676,40.4638353 C115.209459,42.1882331 114.52027,44.2575106 112.797297,44.9472697 L57.6621622,72.5376356 L78.3378378,72.5376356 L116.587838,53.2243795 C118.310811,52.1897408 120.378378,52.8794999 121.067568,54.6038978 C122.101351,56.3282956 121.067568,58.3975731 119.689189,59.0873322 L93.8445946,72.8825152 L144.5,72.8825152 C144.5,72.8825152 144.155405,72.5376356 144.155405,72.5376356 L142.432432,69.4337194 C141.398649,67.7093216 142.432432,65.6400441 143.810811,64.950285 C145.533784,63.9156463 147.601351,64.950285 148.635135,66.3298033 L150.013514,69.4337194 C150.702703,70.8132377 150.358108,71.8478764 149.668919,72.8825152 L193.087838,72.8825152 C193.432432,71.5029969 193.087838,69.778599 192.398649,68.3990807 L182.75,49.0858246 C181.716216,47.3614267 179.993243,46.6716676 178.27027,47.7063063 C173.101351,50.4653429 166.554054,48.0511859 164.141892,42.8779923 C161.385135,37.7047987 163.797297,31.4969664 168.966216,28.7379298 C169.655405,28.3930502 170.344595,27.703291 170.689189,26.6686523 C171.033784,25.6340136 171.033784,24.9442545 170.344595,23.9096157 L160.695946,4.59635962 C159.662162,2.87196176 158.283784,1.49244346 156.216216,0.802684317 C154.493243,0.11292517 152.425676,0.457804744 150.358108,1.14756389 L119.689189,16.6671447 C121.412162,15.9773855 123.47973,16.6671447 124.513514,18.046663 L125.547297,19.7710609 C126.236486,21.4954587 125.547297,23.5647362 123.824324,24.2544953 C122.101351,25.289134 120.033784,24.2544953 119.344595,22.874977 L118.310811,21.1505792 C117.277027,19.4261813 118.310811,17.3569038 119.689189,16.6671447 L4.59459459,74.606913 C0.804054054,76.3313109 -0.574324324,81.1596249 1.14864865,84.6084207 L10.7972973,103.921677 C11.4864865,105.646075 13.5540541,106.335834 15.277027,105.646075 C20.4459459,103.231918 26.6486486,105.301195 29.4054054,110.474389 C31.8175676,115.647582 29.75,121.855415 24.9256757,124.614451 C23.2027027,125.64909 22.5135135,127.718367 23.5472973,129.097886 L33.1959459,148.411142 C33.8851351,149.79066 34.5743243,150.480419 35.9527027,151.170178 L35.9527027,136.685236 C35.9527027,131.167163 40.4324324,126.338849 46.2905405,126.338849 C48.0135135,126.338849 49.7364865,124.959331 49.7364865,122.890053 Z M142.432432,53.9141386 L144.155405,57.0180548 C145.189189,58.7424527 144.155405,60.8117301 142.777027,61.5014892 C141.054054,62.536128 138.986486,61.8463688 137.952703,60.121971 L136.574324,57.0180548 C135.540541,55.2936569 136.22973,53.2243795 137.952703,52.5346203 C139.675676,51.4999816 141.743243,52.1897408 142.432432,53.9141386 Z M136.22973,41.498474 L137.608108,44.6023901 C139.675676,48.740945 133.472973,51.8448612 131.405405,47.7063063 L129.682432,44.6023901 C128.648649,42.8779923 129.682432,40.8087148 131.060811,40.1189557 C133.472973,39.084317 135.540541,39.7740761 136.22973,41.498474 Z M125.547297,27.703291 C127.27027,27.0135319 129.337838,27.703291 130.027027,29.4276889 L131.75,32.5316051 C132.783784,34.2560029 131.75,36.3252804 130.371622,37.0150395 C128.648649,38.0496782 126.581081,37.0150395 125.891892,35.6355212 L124.513514,32.5316051 C123.135135,30.8072072 123.824324,28.7379298 125.547297,27.703291 Z" id="Shape"></path>
                </g>
            </g>
        </g>
    </g>
</svg>